<svg width="20" height="20" viewBox="0 0 20 20" fill="none" xmlns="http://www.w3.org/2000/svg">
<path fill-rule="evenodd" clip-rule="evenodd" d="M1.92793 8.35436C1.92793 4.80514 4.80514 1.92793 8.35436 1.92793C11.9036 1.92793 14.7808 4.80514 14.7808 8.35436C14.7808 11.9036 11.9036 14.7808 8.35436 14.7808C4.80514 14.7808 1.92793 11.9036 1.92793 8.35436ZM8.35436 0C3.74037 0 0 3.74037 0 8.35436C0 12.9684 3.74037 16.7087 8.35436 16.7087C10.314 16.7087 12.1161 16.0339 13.5409 14.9042L17.9551 19.3182L18.6366 19.9999L19.9999 18.6366L19.3182 17.9551L14.9042 13.5409C16.0339 12.1161 16.7087 10.314 16.7087 8.35436C16.7087 3.74037 12.9684 0 8.35436 0Z" fill="#AB8BFF"/>
</svg>
